<mxfile host="app.diagrams.net" modified="2023-07-10T11:35:33.430Z" agent="Mozilla/5.0 (Windows NT 10.0; Win64; x64) AppleWebKit/537.36 (KHTML, like Gecko) Chrome/114.0.0.0 Safari/537.36" etag="gmvGG5FBm8_TnNztWTIa" version="21.6.1" type="device" pages="2">
  <diagram name="Page-1" id="TJ5rp2LK3EvUQSNXMGA2">
    <mxGraphModel dx="768" dy="426" grid="1" gridSize="10" guides="1" tooltips="1" connect="1" arrows="1" fold="1" page="1" pageScale="1" pageWidth="850" pageHeight="1100" math="0" shadow="0">
      <root>
        <mxCell id="0" />
        <mxCell id="1" parent="0" />
        <mxCell id="c3VwqlY7TQDT6yLCsiQx-11" style="edgeStyle=orthogonalEdgeStyle;rounded=0;orthogonalLoop=1;jettySize=auto;html=1;exitX=0.5;exitY=0;exitDx=0;exitDy=0;entryX=0.575;entryY=0.037;entryDx=0;entryDy=0;entryPerimeter=0;labelBackgroundColor=none;fontColor=default;sketch=1;curveFitting=1;jiggle=2;" edge="1" parent="1">
          <mxGeometry relative="1" as="geometry">
            <mxPoint x="120" y="7.039999999999999" as="sourcePoint" />
            <mxPoint x="399" y="55.000000000000036" as="targetPoint" />
          </mxGeometry>
        </mxCell>
        <mxCell id="c3VwqlY7TQDT6yLCsiQx-9" value="User" style="image;html=1;image=img/lib/clip_art/people/Security_Man_128x128.png;labelBackgroundColor=none;fontStyle=1;rounded=0;sketch=1;curveFitting=1;jiggle=2;" vertex="1" parent="1">
          <mxGeometry x="20" y="10" width="220" height="170" as="geometry" />
        </mxCell>
        <mxCell id="c3VwqlY7TQDT6yLCsiQx-10" value="intro" style="ellipse;whiteSpace=wrap;html=1;labelBackgroundColor=none;rounded=0;sketch=1;curveFitting=1;jiggle=2;" vertex="1" parent="1">
          <mxGeometry x="340" y="40" width="120" height="80" as="geometry" />
        </mxCell>
        <mxCell id="JQE2twvImxKfZt5nROOp-5" style="edgeStyle=orthogonalEdgeStyle;rounded=0;orthogonalLoop=1;jettySize=auto;html=1;exitX=0.5;exitY=1;exitDx=0;exitDy=0;entryX=0.5;entryY=0;entryDx=0;entryDy=0;labelBackgroundColor=none;fontColor=default;sketch=1;curveFitting=1;jiggle=2;" edge="1" parent="1" source="c3VwqlY7TQDT6yLCsiQx-12" target="c3VwqlY7TQDT6yLCsiQx-14">
          <mxGeometry relative="1" as="geometry" />
        </mxCell>
        <mxCell id="c3VwqlY7TQDT6yLCsiQx-12" value="company name" style="ellipse;whiteSpace=wrap;html=1;labelBackgroundColor=none;rounded=0;sketch=1;curveFitting=1;jiggle=2;" vertex="1" parent="1">
          <mxGeometry x="340" y="280" width="120" height="80" as="geometry" />
        </mxCell>
        <mxCell id="JQE2twvImxKfZt5nROOp-4" style="edgeStyle=orthogonalEdgeStyle;rounded=0;orthogonalLoop=1;jettySize=auto;html=1;exitX=0.5;exitY=1;exitDx=0;exitDy=0;entryX=0.5;entryY=0;entryDx=0;entryDy=0;labelBackgroundColor=none;fontColor=default;sketch=1;curveFitting=1;jiggle=2;" edge="1" parent="1" source="c3VwqlY7TQDT6yLCsiQx-13" target="c3VwqlY7TQDT6yLCsiQx-12">
          <mxGeometry relative="1" as="geometry" />
        </mxCell>
        <mxCell id="c3VwqlY7TQDT6yLCsiQx-13" value="short information" style="ellipse;whiteSpace=wrap;html=1;labelBackgroundColor=none;rounded=0;sketch=1;curveFitting=1;jiggle=2;" vertex="1" parent="1">
          <mxGeometry x="340" y="160" width="120" height="80" as="geometry" />
        </mxCell>
        <mxCell id="JQE2twvImxKfZt5nROOp-6" style="edgeStyle=orthogonalEdgeStyle;rounded=0;orthogonalLoop=1;jettySize=auto;html=1;exitX=0.5;exitY=1;exitDx=0;exitDy=0;entryX=0.5;entryY=0;entryDx=0;entryDy=0;labelBackgroundColor=none;fontColor=default;sketch=1;curveFitting=1;jiggle=2;" edge="1" parent="1" source="c3VwqlY7TQDT6yLCsiQx-14" target="c3VwqlY7TQDT6yLCsiQx-15">
          <mxGeometry relative="1" as="geometry" />
        </mxCell>
        <mxCell id="c3VwqlY7TQDT6yLCsiQx-14" value="company information" style="ellipse;whiteSpace=wrap;html=1;labelBackgroundColor=none;rounded=0;sketch=1;curveFitting=1;jiggle=2;" vertex="1" parent="1">
          <mxGeometry x="340" y="400" width="120" height="80" as="geometry" />
        </mxCell>
        <mxCell id="JQE2twvImxKfZt5nROOp-7" style="edgeStyle=orthogonalEdgeStyle;rounded=0;orthogonalLoop=1;jettySize=auto;html=1;exitX=0.5;exitY=1;exitDx=0;exitDy=0;entryX=0.5;entryY=0;entryDx=0;entryDy=0;labelBackgroundColor=none;fontColor=default;sketch=1;curveFitting=1;jiggle=2;" edge="1" parent="1" source="c3VwqlY7TQDT6yLCsiQx-15" target="c3VwqlY7TQDT6yLCsiQx-17">
          <mxGeometry relative="1" as="geometry" />
        </mxCell>
        <mxCell id="c3VwqlY7TQDT6yLCsiQx-15" value="logo" style="ellipse;whiteSpace=wrap;html=1;labelBackgroundColor=none;rounded=0;sketch=1;curveFitting=1;jiggle=2;" vertex="1" parent="1">
          <mxGeometry x="340" y="520" width="120" height="80" as="geometry" />
        </mxCell>
        <mxCell id="JQE2twvImxKfZt5nROOp-9" style="edgeStyle=orthogonalEdgeStyle;rounded=0;orthogonalLoop=1;jettySize=auto;html=1;exitX=0.5;exitY=1;exitDx=0;exitDy=0;entryX=0.5;entryY=0;entryDx=0;entryDy=0;labelBackgroundColor=none;fontColor=default;sketch=1;curveFitting=1;jiggle=2;" edge="1" parent="1" source="c3VwqlY7TQDT6yLCsiQx-16" target="c3VwqlY7TQDT6yLCsiQx-30">
          <mxGeometry relative="1" as="geometry" />
        </mxCell>
        <mxCell id="JQE2twvImxKfZt5nROOp-15" style="edgeStyle=orthogonalEdgeStyle;rounded=0;orthogonalLoop=1;jettySize=auto;html=1;entryX=0;entryY=0.5;entryDx=0;entryDy=0;labelBackgroundColor=none;fontColor=default;sketch=1;curveFitting=1;jiggle=2;" edge="1" parent="1" source="c3VwqlY7TQDT6yLCsiQx-16" target="c3VwqlY7TQDT6yLCsiQx-22">
          <mxGeometry relative="1" as="geometry" />
        </mxCell>
        <mxCell id="c3VwqlY7TQDT6yLCsiQx-16" value="products" style="ellipse;whiteSpace=wrap;html=1;labelBackgroundColor=none;rounded=0;sketch=1;curveFitting=1;jiggle=2;" vertex="1" parent="1">
          <mxGeometry x="340" y="760" width="120" height="80" as="geometry" />
        </mxCell>
        <mxCell id="JQE2twvImxKfZt5nROOp-8" style="edgeStyle=orthogonalEdgeStyle;rounded=0;orthogonalLoop=1;jettySize=auto;html=1;exitX=0.5;exitY=1;exitDx=0;exitDy=0;entryX=0.5;entryY=0;entryDx=0;entryDy=0;labelBackgroundColor=none;fontColor=default;sketch=1;curveFitting=1;jiggle=2;" edge="1" parent="1" source="c3VwqlY7TQDT6yLCsiQx-17" target="c3VwqlY7TQDT6yLCsiQx-16">
          <mxGeometry relative="1" as="geometry" />
        </mxCell>
        <mxCell id="JQE2twvImxKfZt5nROOp-14" style="edgeStyle=orthogonalEdgeStyle;rounded=0;orthogonalLoop=1;jettySize=auto;html=1;exitX=1;exitY=0.5;exitDx=0;exitDy=0;labelBackgroundColor=none;fontColor=default;sketch=1;curveFitting=1;jiggle=2;" edge="1" parent="1" source="c3VwqlY7TQDT6yLCsiQx-17" target="c3VwqlY7TQDT6yLCsiQx-21">
          <mxGeometry relative="1" as="geometry" />
        </mxCell>
        <mxCell id="c3VwqlY7TQDT6yLCsiQx-17" value="stores/Location" style="ellipse;whiteSpace=wrap;html=1;labelBackgroundColor=none;rounded=0;sketch=1;curveFitting=1;jiggle=2;" vertex="1" parent="1">
          <mxGeometry x="340" y="640" width="120" height="80" as="geometry" />
        </mxCell>
        <mxCell id="c3VwqlY7TQDT6yLCsiQx-20" value="company outlet" style="ellipse;whiteSpace=wrap;html=1;labelBackgroundColor=none;rounded=0;sketch=1;curveFitting=1;jiggle=2;" vertex="1" parent="1">
          <mxGeometry x="160" y="640" width="120" height="80" as="geometry" />
        </mxCell>
        <mxCell id="c3VwqlY7TQDT6yLCsiQx-21" value="frenchies" style="ellipse;whiteSpace=wrap;html=1;labelBackgroundColor=none;rounded=0;sketch=1;curveFitting=1;jiggle=2;" vertex="1" parent="1">
          <mxGeometry x="520" y="640" width="120" height="80" as="geometry" />
        </mxCell>
        <mxCell id="c3VwqlY7TQDT6yLCsiQx-22" value="various types of products" style="ellipse;whiteSpace=wrap;html=1;labelBackgroundColor=none;rounded=0;sketch=1;curveFitting=1;jiggle=2;" vertex="1" parent="1">
          <mxGeometry x="520" y="760" width="120" height="80" as="geometry" />
        </mxCell>
        <mxCell id="JQE2twvImxKfZt5nROOp-10" style="edgeStyle=orthogonalEdgeStyle;rounded=0;orthogonalLoop=1;jettySize=auto;html=1;exitX=0.5;exitY=1;exitDx=0;exitDy=0;entryX=0.5;entryY=0;entryDx=0;entryDy=0;labelBackgroundColor=none;fontColor=default;sketch=1;curveFitting=1;jiggle=2;" edge="1" parent="1" source="c3VwqlY7TQDT6yLCsiQx-30" target="c3VwqlY7TQDT6yLCsiQx-31">
          <mxGeometry relative="1" as="geometry" />
        </mxCell>
        <mxCell id="c3VwqlY7TQDT6yLCsiQx-30" value="Licence" style="ellipse;whiteSpace=wrap;html=1;labelBackgroundColor=none;rounded=0;sketch=1;curveFitting=1;jiggle=2;" vertex="1" parent="1">
          <mxGeometry x="340" y="880" width="120" height="80" as="geometry" />
        </mxCell>
        <mxCell id="JQE2twvImxKfZt5nROOp-11" style="edgeStyle=orthogonalEdgeStyle;rounded=0;orthogonalLoop=1;jettySize=auto;html=1;exitX=0.5;exitY=1;exitDx=0;exitDy=0;entryX=0.5;entryY=0;entryDx=0;entryDy=0;labelBackgroundColor=none;fontColor=default;sketch=1;curveFitting=1;jiggle=2;" edge="1" parent="1" source="c3VwqlY7TQDT6yLCsiQx-31" target="JQE2twvImxKfZt5nROOp-1">
          <mxGeometry relative="1" as="geometry" />
        </mxCell>
        <mxCell id="c3VwqlY7TQDT6yLCsiQx-31" value="deal done&amp;nbsp;" style="ellipse;whiteSpace=wrap;html=1;labelBackgroundColor=none;rounded=0;sketch=1;curveFitting=1;jiggle=2;" vertex="1" parent="1">
          <mxGeometry x="340" y="1000" width="120" height="80" as="geometry" />
        </mxCell>
        <mxCell id="JQE2twvImxKfZt5nROOp-1" value="Price discussion&amp;nbsp;ðŸ˜Š" style="ellipse;whiteSpace=wrap;html=1;labelBackgroundColor=none;rounded=0;sketch=1;curveFitting=1;jiggle=2;" vertex="1" parent="1">
          <mxGeometry x="340" y="1120" width="120" height="80" as="geometry" />
        </mxCell>
        <mxCell id="JQE2twvImxKfZt5nROOp-3" value="" style="endArrow=classic;html=1;rounded=0;exitX=0.5;exitY=1;exitDx=0;exitDy=0;entryX=0.5;entryY=0;entryDx=0;entryDy=0;labelBackgroundColor=none;fontColor=default;sketch=1;curveFitting=1;jiggle=2;" edge="1" parent="1" source="c3VwqlY7TQDT6yLCsiQx-10" target="c3VwqlY7TQDT6yLCsiQx-13">
          <mxGeometry width="50" height="50" relative="1" as="geometry">
            <mxPoint x="370" y="180" as="sourcePoint" />
            <mxPoint x="420" y="130" as="targetPoint" />
          </mxGeometry>
        </mxCell>
        <mxCell id="JQE2twvImxKfZt5nROOp-13" value="" style="endArrow=classic;html=1;rounded=0;exitX=0;exitY=0.5;exitDx=0;exitDy=0;entryX=1;entryY=0.5;entryDx=0;entryDy=0;labelBackgroundColor=none;fontColor=default;sketch=1;curveFitting=1;jiggle=2;" edge="1" parent="1" source="c3VwqlY7TQDT6yLCsiQx-17" target="c3VwqlY7TQDT6yLCsiQx-20">
          <mxGeometry width="50" height="50" relative="1" as="geometry">
            <mxPoint x="370" y="680" as="sourcePoint" />
            <mxPoint x="420" y="630" as="targetPoint" />
          </mxGeometry>
        </mxCell>
      </root>
    </mxGraphModel>
  </diagram>
  <diagram id="qMcAyfxY1F8NrxnEJ4nr" name="Page-2">
    <mxGraphModel dx="768" dy="426" grid="1" gridSize="10" guides="1" tooltips="1" connect="1" arrows="1" fold="1" page="1" pageScale="1" pageWidth="850" pageHeight="1100" math="0" shadow="0">
      <root>
        <mxCell id="0" />
        <mxCell id="1" parent="0" />
        <mxCell id="DlEKK_0ceNbLRkAcTvXT-1" value="Admin" style="image;html=1;image=img/lib/clip_art/people/Suit_Man_Blue_128x128.png;hachureGap=4;fontFamily=Architects Daughter;fontSource=https%3A%2F%2Ffonts.googleapis.com%2Fcss%3Ffamily%3DArchitects%2BDaughter;fontSize=20;rounded=1;labelBackgroundColor=none;" vertex="1" parent="1">
          <mxGeometry x="80" y="80" width="80" height="80" as="geometry" />
        </mxCell>
        <mxCell id="DlEKK_0ceNbLRkAcTvXT-2" value="" style="shape=flexArrow;endArrow=classic;html=1;rounded=1;hachureGap=4;fontFamily=Architects Daughter;fontSource=https%3A%2F%2Ffonts.googleapis.com%2Fcss%3Ffamily%3DArchitects%2BDaughter;fontSize=16;exitX=1;exitY=0.5;exitDx=0;exitDy=0;labelBackgroundColor=none;fontColor=default;" edge="1" parent="1" source="DlEKK_0ceNbLRkAcTvXT-1">
          <mxGeometry width="50" height="50" relative="1" as="geometry">
            <mxPoint x="370" y="250" as="sourcePoint" />
            <mxPoint x="280" y="120" as="targetPoint" />
          </mxGeometry>
        </mxCell>
        <mxCell id="DeLPNUmCczla4v6UxypW-35" style="edgeStyle=orthogonalEdgeStyle;rounded=0;orthogonalLoop=1;jettySize=auto;html=1;exitX=0.5;exitY=1;exitDx=0;exitDy=0;entryX=0.5;entryY=0;entryDx=0;entryDy=0;" edge="1" parent="1" source="DeLPNUmCczla4v6UxypW-2" target="DeLPNUmCczla4v6UxypW-3">
          <mxGeometry relative="1" as="geometry" />
        </mxCell>
        <mxCell id="DeLPNUmCczla4v6UxypW-2" value="Know requirement" style="ellipse;whiteSpace=wrap;html=1;" vertex="1" parent="1">
          <mxGeometry x="340" y="80" width="120" height="80" as="geometry" />
        </mxCell>
        <mxCell id="DeLPNUmCczla4v6UxypW-36" style="edgeStyle=orthogonalEdgeStyle;rounded=0;orthogonalLoop=1;jettySize=auto;html=1;exitX=0.5;exitY=1;exitDx=0;exitDy=0;entryX=0.5;entryY=0;entryDx=0;entryDy=0;" edge="1" parent="1" source="DeLPNUmCczla4v6UxypW-3" target="DeLPNUmCczla4v6UxypW-4">
          <mxGeometry relative="1" as="geometry" />
        </mxCell>
        <mxCell id="DeLPNUmCczla4v6UxypW-3" value="design blueprint" style="ellipse;whiteSpace=wrap;html=1;" vertex="1" parent="1">
          <mxGeometry x="340" y="200" width="120" height="80" as="geometry" />
        </mxCell>
        <mxCell id="DeLPNUmCczla4v6UxypW-37" style="edgeStyle=orthogonalEdgeStyle;rounded=0;orthogonalLoop=1;jettySize=auto;html=1;exitX=0.5;exitY=1;exitDx=0;exitDy=0;entryX=0.5;entryY=0;entryDx=0;entryDy=0;" edge="1" parent="1" source="DeLPNUmCczla4v6UxypW-4" target="DeLPNUmCczla4v6UxypW-15">
          <mxGeometry relative="1" as="geometry" />
        </mxCell>
        <mxCell id="DeLPNUmCczla4v6UxypW-4" value="name &amp;amp; Logo" style="ellipse;whiteSpace=wrap;html=1;" vertex="1" parent="1">
          <mxGeometry x="340" y="320" width="120" height="80" as="geometry" />
        </mxCell>
        <mxCell id="DeLPNUmCczla4v6UxypW-39" style="edgeStyle=orthogonalEdgeStyle;rounded=0;orthogonalLoop=1;jettySize=auto;html=1;exitX=1;exitY=0.5;exitDx=0;exitDy=0;entryX=0;entryY=0.5;entryDx=0;entryDy=0;" edge="1" parent="1" source="DeLPNUmCczla4v6UxypW-5" target="DeLPNUmCczla4v6UxypW-31">
          <mxGeometry relative="1" as="geometry" />
        </mxCell>
        <mxCell id="DeLPNUmCczla4v6UxypW-40" style="edgeStyle=orthogonalEdgeStyle;rounded=0;orthogonalLoop=1;jettySize=auto;html=1;exitX=0.5;exitY=1;exitDx=0;exitDy=0;entryX=0.5;entryY=0;entryDx=0;entryDy=0;" edge="1" parent="1" source="DeLPNUmCczla4v6UxypW-5" target="DeLPNUmCczla4v6UxypW-6">
          <mxGeometry relative="1" as="geometry" />
        </mxCell>
        <mxCell id="DeLPNUmCczla4v6UxypW-5" value="products details" style="ellipse;whiteSpace=wrap;html=1;" vertex="1" parent="1">
          <mxGeometry x="340" y="560" width="120" height="80" as="geometry" />
        </mxCell>
        <mxCell id="DeLPNUmCczla4v6UxypW-41" style="edgeStyle=orthogonalEdgeStyle;rounded=0;orthogonalLoop=1;jettySize=auto;html=1;exitX=1;exitY=0.5;exitDx=0;exitDy=0;entryX=0;entryY=0.5;entryDx=0;entryDy=0;" edge="1" parent="1" source="DeLPNUmCczla4v6UxypW-6" target="DeLPNUmCczla4v6UxypW-17">
          <mxGeometry relative="1" as="geometry" />
        </mxCell>
        <mxCell id="DeLPNUmCczla4v6UxypW-42" style="edgeStyle=orthogonalEdgeStyle;rounded=0;orthogonalLoop=1;jettySize=auto;html=1;exitX=0.5;exitY=1;exitDx=0;exitDy=0;entryX=0.5;entryY=0;entryDx=0;entryDy=0;" edge="1" parent="1" source="DeLPNUmCczla4v6UxypW-6" target="DeLPNUmCczla4v6UxypW-8">
          <mxGeometry relative="1" as="geometry" />
        </mxCell>
        <mxCell id="DeLPNUmCczla4v6UxypW-44" style="edgeStyle=orthogonalEdgeStyle;rounded=0;orthogonalLoop=1;jettySize=auto;html=1;exitX=0.5;exitY=1;exitDx=0;exitDy=0;" edge="1" parent="1" source="DeLPNUmCczla4v6UxypW-6">
          <mxGeometry relative="1" as="geometry">
            <mxPoint x="400" y="800" as="targetPoint" />
          </mxGeometry>
        </mxCell>
        <mxCell id="DeLPNUmCczla4v6UxypW-45" style="edgeStyle=orthogonalEdgeStyle;rounded=0;orthogonalLoop=1;jettySize=auto;html=1;exitX=0;exitY=0.5;exitDx=0;exitDy=0;entryX=1;entryY=0.5;entryDx=0;entryDy=0;" edge="1" parent="1" source="DeLPNUmCczla4v6UxypW-6" target="DeLPNUmCczla4v6UxypW-43">
          <mxGeometry relative="1" as="geometry" />
        </mxCell>
        <mxCell id="DeLPNUmCczla4v6UxypW-6" value="Price" style="ellipse;whiteSpace=wrap;html=1;" vertex="1" parent="1">
          <mxGeometry x="340" y="680" width="120" height="80" as="geometry" />
        </mxCell>
        <mxCell id="DeLPNUmCczla4v6UxypW-47" style="edgeStyle=orthogonalEdgeStyle;rounded=0;orthogonalLoop=1;jettySize=auto;html=1;exitX=0.5;exitY=1;exitDx=0;exitDy=0;entryX=0.5;entryY=0;entryDx=0;entryDy=0;" edge="1" parent="1" source="DeLPNUmCczla4v6UxypW-7" target="DeLPNUmCczla4v6UxypW-10">
          <mxGeometry relative="1" as="geometry" />
        </mxCell>
        <mxCell id="DeLPNUmCczla4v6UxypW-7" value="Add &amp;amp; delete product" style="ellipse;whiteSpace=wrap;html=1;" vertex="1" parent="1">
          <mxGeometry x="340" y="920" width="120" height="80" as="geometry" />
        </mxCell>
        <mxCell id="DeLPNUmCczla4v6UxypW-46" style="edgeStyle=orthogonalEdgeStyle;rounded=0;orthogonalLoop=1;jettySize=auto;html=1;exitX=0.5;exitY=1;exitDx=0;exitDy=0;entryX=0.5;entryY=0;entryDx=0;entryDy=0;" edge="1" parent="1" source="DeLPNUmCczla4v6UxypW-8" target="DeLPNUmCczla4v6UxypW-7">
          <mxGeometry relative="1" as="geometry" />
        </mxCell>
        <mxCell id="DeLPNUmCczla4v6UxypW-8" value="add to&amp;nbsp; cart" style="ellipse;whiteSpace=wrap;html=1;" vertex="1" parent="1">
          <mxGeometry x="340" y="800" width="120" height="80" as="geometry" />
        </mxCell>
        <mxCell id="DeLPNUmCczla4v6UxypW-48" style="edgeStyle=orthogonalEdgeStyle;rounded=0;orthogonalLoop=1;jettySize=auto;html=1;exitX=0.5;exitY=1;exitDx=0;exitDy=0;entryX=0.5;entryY=0;entryDx=0;entryDy=0;" edge="1" parent="1" source="DeLPNUmCczla4v6UxypW-10" target="DeLPNUmCczla4v6UxypW-12">
          <mxGeometry relative="1" as="geometry" />
        </mxCell>
        <mxCell id="DeLPNUmCczla4v6UxypW-10" value="review your order" style="ellipse;whiteSpace=wrap;html=1;" vertex="1" parent="1">
          <mxGeometry x="340" y="1040" width="120" height="80" as="geometry" />
        </mxCell>
        <mxCell id="DeLPNUmCczla4v6UxypW-50" style="edgeStyle=orthogonalEdgeStyle;rounded=0;orthogonalLoop=1;jettySize=auto;html=1;exitX=0.5;exitY=1;exitDx=0;exitDy=0;entryX=0.5;entryY=0;entryDx=0;entryDy=0;" edge="1" parent="1" source="DeLPNUmCczla4v6UxypW-11" target="DeLPNUmCczla4v6UxypW-13">
          <mxGeometry relative="1" as="geometry" />
        </mxCell>
        <mxCell id="DeLPNUmCczla4v6UxypW-11" value="place order" style="ellipse;whiteSpace=wrap;html=1;" vertex="1" parent="1">
          <mxGeometry x="340" y="1280" width="120" height="80" as="geometry" />
        </mxCell>
        <mxCell id="DeLPNUmCczla4v6UxypW-49" style="edgeStyle=orthogonalEdgeStyle;rounded=0;orthogonalLoop=1;jettySize=auto;html=1;exitX=0.5;exitY=1;exitDx=0;exitDy=0;entryX=0.5;entryY=0;entryDx=0;entryDy=0;" edge="1" parent="1" source="DeLPNUmCczla4v6UxypW-12" target="DeLPNUmCczla4v6UxypW-11">
          <mxGeometry relative="1" as="geometry" />
        </mxCell>
        <mxCell id="DeLPNUmCczla4v6UxypW-12" value="suggestions&amp;nbsp;" style="ellipse;whiteSpace=wrap;html=1;" vertex="1" parent="1">
          <mxGeometry x="340" y="1160" width="120" height="80" as="geometry" />
        </mxCell>
        <mxCell id="DeLPNUmCczla4v6UxypW-51" style="edgeStyle=orthogonalEdgeStyle;rounded=0;orthogonalLoop=1;jettySize=auto;html=1;exitX=0.5;exitY=1;exitDx=0;exitDy=0;entryX=0.5;entryY=0;entryDx=0;entryDy=0;" edge="1" parent="1" source="DeLPNUmCczla4v6UxypW-13" target="DeLPNUmCczla4v6UxypW-14">
          <mxGeometry relative="1" as="geometry" />
        </mxCell>
        <mxCell id="DeLPNUmCczla4v6UxypW-13" value="address details" style="ellipse;whiteSpace=wrap;html=1;" vertex="1" parent="1">
          <mxGeometry x="340" y="1400" width="120" height="80" as="geometry" />
        </mxCell>
        <mxCell id="DeLPNUmCczla4v6UxypW-52" style="edgeStyle=orthogonalEdgeStyle;rounded=0;orthogonalLoop=1;jettySize=auto;html=1;exitX=1;exitY=0.5;exitDx=0;exitDy=0;entryX=0;entryY=0.5;entryDx=0;entryDy=0;" edge="1" parent="1" source="DeLPNUmCczla4v6UxypW-14" target="DeLPNUmCczla4v6UxypW-18">
          <mxGeometry relative="1" as="geometry" />
        </mxCell>
        <mxCell id="DeLPNUmCczla4v6UxypW-53" style="edgeStyle=orthogonalEdgeStyle;rounded=0;orthogonalLoop=1;jettySize=auto;html=1;exitX=0;exitY=0.5;exitDx=0;exitDy=0;entryX=1;entryY=0.5;entryDx=0;entryDy=0;" edge="1" parent="1" source="DeLPNUmCczla4v6UxypW-14" target="DeLPNUmCczla4v6UxypW-19">
          <mxGeometry relative="1" as="geometry" />
        </mxCell>
        <mxCell id="DeLPNUmCczla4v6UxypW-54" style="edgeStyle=orthogonalEdgeStyle;rounded=0;orthogonalLoop=1;jettySize=auto;html=1;exitX=0.5;exitY=1;exitDx=0;exitDy=0;entryX=0.5;entryY=0;entryDx=0;entryDy=0;" edge="1" parent="1" source="DeLPNUmCczla4v6UxypW-14" target="DeLPNUmCczla4v6UxypW-20">
          <mxGeometry relative="1" as="geometry" />
        </mxCell>
        <mxCell id="DeLPNUmCczla4v6UxypW-14" value="Payment method" style="ellipse;whiteSpace=wrap;html=1;" vertex="1" parent="1">
          <mxGeometry x="340" y="1520" width="120" height="80" as="geometry" />
        </mxCell>
        <mxCell id="DeLPNUmCczla4v6UxypW-38" style="edgeStyle=orthogonalEdgeStyle;rounded=0;orthogonalLoop=1;jettySize=auto;html=1;exitX=0.5;exitY=1;exitDx=0;exitDy=0;entryX=0.5;entryY=0;entryDx=0;entryDy=0;" edge="1" parent="1" source="DeLPNUmCczla4v6UxypW-15" target="DeLPNUmCczla4v6UxypW-5">
          <mxGeometry relative="1" as="geometry" />
        </mxCell>
        <mxCell id="DeLPNUmCczla4v6UxypW-15" value="register log in" style="ellipse;whiteSpace=wrap;html=1;" vertex="1" parent="1">
          <mxGeometry x="340" y="440" width="120" height="80" as="geometry" />
        </mxCell>
        <mxCell id="DeLPNUmCczla4v6UxypW-17" value="discount" style="ellipse;whiteSpace=wrap;html=1;" vertex="1" parent="1">
          <mxGeometry x="480" y="680" width="120" height="80" as="geometry" />
        </mxCell>
        <mxCell id="DeLPNUmCczla4v6UxypW-18" value="COD" style="ellipse;whiteSpace=wrap;html=1;" vertex="1" parent="1">
          <mxGeometry x="480" y="1520" width="120" height="80" as="geometry" />
        </mxCell>
        <mxCell id="DeLPNUmCczla4v6UxypW-19" value="online/Card" style="ellipse;whiteSpace=wrap;html=1;" vertex="1" parent="1">
          <mxGeometry x="200" y="1520" width="120" height="80" as="geometry" />
        </mxCell>
        <mxCell id="DeLPNUmCczla4v6UxypW-55" style="edgeStyle=orthogonalEdgeStyle;rounded=0;orthogonalLoop=1;jettySize=auto;html=1;exitX=0.5;exitY=1;exitDx=0;exitDy=0;entryX=0.5;entryY=0;entryDx=0;entryDy=0;" edge="1" parent="1" source="DeLPNUmCczla4v6UxypW-20" target="DeLPNUmCczla4v6UxypW-21">
          <mxGeometry relative="1" as="geometry" />
        </mxCell>
        <mxCell id="DeLPNUmCczla4v6UxypW-20" value="invoice" style="ellipse;whiteSpace=wrap;html=1;" vertex="1" parent="1">
          <mxGeometry x="340" y="1640" width="120" height="80" as="geometry" />
        </mxCell>
        <mxCell id="DeLPNUmCczla4v6UxypW-56" style="edgeStyle=orthogonalEdgeStyle;rounded=0;orthogonalLoop=1;jettySize=auto;html=1;exitX=0.5;exitY=1;exitDx=0;exitDy=0;entryX=0.5;entryY=0;entryDx=0;entryDy=0;" edge="1" parent="1" source="DeLPNUmCczla4v6UxypW-21" target="DeLPNUmCczla4v6UxypW-22">
          <mxGeometry relative="1" as="geometry" />
        </mxCell>
        <mxCell id="DeLPNUmCczla4v6UxypW-21" value="order details" style="ellipse;whiteSpace=wrap;html=1;" vertex="1" parent="1">
          <mxGeometry x="340" y="1760" width="120" height="80" as="geometry" />
        </mxCell>
        <mxCell id="DeLPNUmCczla4v6UxypW-57" style="edgeStyle=orthogonalEdgeStyle;rounded=0;orthogonalLoop=1;jettySize=auto;html=1;exitX=0.5;exitY=1;exitDx=0;exitDy=0;entryX=0.5;entryY=0;entryDx=0;entryDy=0;" edge="1" parent="1" source="DeLPNUmCczla4v6UxypW-22" target="DeLPNUmCczla4v6UxypW-23">
          <mxGeometry relative="1" as="geometry" />
        </mxCell>
        <mxCell id="DeLPNUmCczla4v6UxypW-22" value="conformation mail" style="ellipse;whiteSpace=wrap;html=1;" vertex="1" parent="1">
          <mxGeometry x="340" y="1880" width="120" height="80" as="geometry" />
        </mxCell>
        <mxCell id="DeLPNUmCczla4v6UxypW-58" style="edgeStyle=orthogonalEdgeStyle;rounded=0;orthogonalLoop=1;jettySize=auto;html=1;exitX=0.5;exitY=1;exitDx=0;exitDy=0;entryX=0.5;entryY=0;entryDx=0;entryDy=0;" edge="1" parent="1" source="DeLPNUmCczla4v6UxypW-23" target="DeLPNUmCczla4v6UxypW-24">
          <mxGeometry relative="1" as="geometry" />
        </mxCell>
        <mxCell id="DeLPNUmCczla4v6UxypW-23" value="Delivery time&amp;nbsp;" style="ellipse;whiteSpace=wrap;html=1;" vertex="1" parent="1">
          <mxGeometry x="340" y="2000" width="120" height="80" as="geometry" />
        </mxCell>
        <mxCell id="DeLPNUmCczla4v6UxypW-59" style="edgeStyle=orthogonalEdgeStyle;rounded=0;orthogonalLoop=1;jettySize=auto;html=1;exitX=0.5;exitY=1;exitDx=0;exitDy=0;entryX=0.5;entryY=0;entryDx=0;entryDy=0;" edge="1" parent="1" source="DeLPNUmCczla4v6UxypW-24" target="DeLPNUmCczla4v6UxypW-25">
          <mxGeometry relative="1" as="geometry" />
        </mxCell>
        <mxCell id="DeLPNUmCczla4v6UxypW-24" value="cancel order" style="ellipse;whiteSpace=wrap;html=1;" vertex="1" parent="1">
          <mxGeometry x="340" y="2120" width="120" height="80" as="geometry" />
        </mxCell>
        <mxCell id="DeLPNUmCczla4v6UxypW-60" style="edgeStyle=orthogonalEdgeStyle;rounded=0;orthogonalLoop=1;jettySize=auto;html=1;exitX=1;exitY=0.5;exitDx=0;exitDy=0;entryX=0;entryY=0.5;entryDx=0;entryDy=0;" edge="1" parent="1" source="DeLPNUmCczla4v6UxypW-25" target="DeLPNUmCczla4v6UxypW-27">
          <mxGeometry relative="1" as="geometry" />
        </mxCell>
        <mxCell id="DeLPNUmCczla4v6UxypW-61" style="edgeStyle=orthogonalEdgeStyle;rounded=0;orthogonalLoop=1;jettySize=auto;html=1;exitX=0;exitY=0.5;exitDx=0;exitDy=0;entryX=1;entryY=0.5;entryDx=0;entryDy=0;" edge="1" parent="1" source="DeLPNUmCczla4v6UxypW-25" target="DeLPNUmCczla4v6UxypW-26">
          <mxGeometry relative="1" as="geometry" />
        </mxCell>
        <mxCell id="DeLPNUmCczla4v6UxypW-62" style="edgeStyle=orthogonalEdgeStyle;rounded=0;orthogonalLoop=1;jettySize=auto;html=1;exitX=0.5;exitY=1;exitDx=0;exitDy=0;entryX=0.5;entryY=0;entryDx=0;entryDy=0;" edge="1" parent="1" source="DeLPNUmCczla4v6UxypW-25" target="DeLPNUmCczla4v6UxypW-29">
          <mxGeometry relative="1" as="geometry" />
        </mxCell>
        <mxCell id="DeLPNUmCczla4v6UxypW-25" value="order received" style="ellipse;whiteSpace=wrap;html=1;" vertex="1" parent="1">
          <mxGeometry x="340" y="2240" width="120" height="80" as="geometry" />
        </mxCell>
        <mxCell id="DeLPNUmCczla4v6UxypW-26" value="Replace&amp;nbsp;" style="ellipse;whiteSpace=wrap;html=1;" vertex="1" parent="1">
          <mxGeometry x="200" y="2240" width="120" height="80" as="geometry" />
        </mxCell>
        <mxCell id="DeLPNUmCczla4v6UxypW-27" value="Accept and pay" style="ellipse;whiteSpace=wrap;html=1;" vertex="1" parent="1">
          <mxGeometry x="480" y="2240" width="120" height="80" as="geometry" />
        </mxCell>
        <mxCell id="DeLPNUmCczla4v6UxypW-64" style="edgeStyle=orthogonalEdgeStyle;rounded=0;orthogonalLoop=1;jettySize=auto;html=1;exitX=0.5;exitY=1;exitDx=0;exitDy=0;entryX=0.5;entryY=0;entryDx=0;entryDy=0;" edge="1" parent="1" source="DeLPNUmCczla4v6UxypW-28" target="DeLPNUmCczla4v6UxypW-30">
          <mxGeometry relative="1" as="geometry" />
        </mxCell>
        <mxCell id="DeLPNUmCczla4v6UxypW-28" value="return policy" style="ellipse;whiteSpace=wrap;html=1;" vertex="1" parent="1">
          <mxGeometry x="340" y="2480" width="120" height="80" as="geometry" />
        </mxCell>
        <mxCell id="DeLPNUmCczla4v6UxypW-63" style="edgeStyle=orthogonalEdgeStyle;rounded=0;orthogonalLoop=1;jettySize=auto;html=1;exitX=0.5;exitY=1;exitDx=0;exitDy=0;entryX=0.5;entryY=0;entryDx=0;entryDy=0;" edge="1" parent="1" source="DeLPNUmCczla4v6UxypW-29" target="DeLPNUmCczla4v6UxypW-28">
          <mxGeometry relative="1" as="geometry" />
        </mxCell>
        <mxCell id="DeLPNUmCczla4v6UxypW-29" value="damage product&amp;nbsp;" style="ellipse;whiteSpace=wrap;html=1;" vertex="1" parent="1">
          <mxGeometry x="340" y="2360" width="120" height="80" as="geometry" />
        </mxCell>
        <mxCell id="DeLPNUmCczla4v6UxypW-65" style="edgeStyle=orthogonalEdgeStyle;rounded=0;orthogonalLoop=1;jettySize=auto;html=1;exitX=0.5;exitY=1;exitDx=0;exitDy=0;entryX=0.5;entryY=0;entryDx=0;entryDy=0;" edge="1" parent="1" source="DeLPNUmCczla4v6UxypW-30" target="DeLPNUmCczla4v6UxypW-32">
          <mxGeometry relative="1" as="geometry" />
        </mxCell>
        <mxCell id="DeLPNUmCczla4v6UxypW-30" value="Update the details" style="ellipse;whiteSpace=wrap;html=1;" vertex="1" parent="1">
          <mxGeometry x="340" y="2600" width="120" height="80" as="geometry" />
        </mxCell>
        <mxCell id="DeLPNUmCczla4v6UxypW-31" value="stock" style="ellipse;whiteSpace=wrap;html=1;" vertex="1" parent="1">
          <mxGeometry x="480" y="560" width="120" height="80" as="geometry" />
        </mxCell>
        <mxCell id="DeLPNUmCczla4v6UxypW-66" style="edgeStyle=orthogonalEdgeStyle;rounded=0;orthogonalLoop=1;jettySize=auto;html=1;exitX=0.5;exitY=1;exitDx=0;exitDy=0;entryX=0.5;entryY=0;entryDx=0;entryDy=0;" edge="1" parent="1" source="DeLPNUmCczla4v6UxypW-32" target="DeLPNUmCczla4v6UxypW-33">
          <mxGeometry relative="1" as="geometry" />
        </mxCell>
        <mxCell id="DeLPNUmCczla4v6UxypW-32" value="Digital Marketing&amp;nbsp;" style="ellipse;whiteSpace=wrap;html=1;" vertex="1" parent="1">
          <mxGeometry x="340" y="2720" width="120" height="80" as="geometry" />
        </mxCell>
        <mxCell id="DeLPNUmCczla4v6UxypW-67" style="edgeStyle=orthogonalEdgeStyle;rounded=0;orthogonalLoop=1;jettySize=auto;html=1;exitX=0.5;exitY=1;exitDx=0;exitDy=0;entryX=0.5;entryY=0;entryDx=0;entryDy=0;" edge="1" parent="1" source="DeLPNUmCczla4v6UxypW-33" target="DeLPNUmCczla4v6UxypW-34">
          <mxGeometry relative="1" as="geometry" />
        </mxCell>
        <mxCell id="DeLPNUmCczla4v6UxypW-33" value="Advertisement" style="ellipse;whiteSpace=wrap;html=1;" vertex="1" parent="1">
          <mxGeometry x="340" y="2840" width="120" height="80" as="geometry" />
        </mxCell>
        <mxCell id="DeLPNUmCczla4v6UxypW-34" value="maintain website" style="ellipse;whiteSpace=wrap;html=1;" vertex="1" parent="1">
          <mxGeometry x="340" y="2960" width="120" height="80" as="geometry" />
        </mxCell>
        <mxCell id="DeLPNUmCczla4v6UxypW-43" value="coupons&amp;nbsp;" style="ellipse;whiteSpace=wrap;html=1;" vertex="1" parent="1">
          <mxGeometry x="200" y="680" width="120" height="80" as="geometry" />
        </mxCell>
      </root>
    </mxGraphModel>
  </diagram>
</mxfile>
